<?xml version="1.0" encoding="UTF-8" standalone="no"?>
<svg
   width="150"
   height="150"
   viewBox="0 0 150 150"
   fill="none"
   version="1.1"
   id="svg2"
   xmlns="http://www.w3.org/2000/svg"
   xmlns:svg="http://www.w3.org/2000/svg">
  <defs
     id="defs2" />
  <g
     id="layer1"
     transform="matrix(2.1211064,0,0,2.1211064,-143.53872,-242.66554)">
    <path
       style="fill:#09e100;fill-opacity:1"
       d="m 82.109328,183.32341 c -5.580672,-0.95395 -10.035597,-4.89086 -11.803772,-10.43125 l -0.59108,-1.85208 v -21.29896 c 0,-19.92418 0.0314,-21.40142 0.486491,-22.88645 1.544504,-5.03998 5.32145,-8.81692 10.361425,-10.36143 1.485033,-0.45509 2.962271,-0.48649 22.886458,-0.48649 19.9242,0 21.40143,0.0314 22.88647,0.48649 5.03997,1.54451 8.81692,5.32145 10.36142,10.36143 0.45509,1.48503 0.48649,2.96227 0.48649,22.88645 0,19.92419 -0.0314,21.40143 -0.48649,22.88646 -1.52357,4.97167 -5.19143,8.68418 -10.22913,10.35365 -1.35321,0.44845 -2.91102,0.48551 -22.22501,0.52875 -11.423385,0.0256 -21.383358,-0.0584 -22.133272,-0.18657 z m 20.218582,-22.8206 c 0.0581,-7.45791 0.009,-8.93539 -0.29184,-8.86354 -0.19885,0.0474 -3.41246,1.27685 -7.141371,2.73206 l -6.779834,2.64584 -0.0059,6.28817 -0.0059,6.28818 7.077604,-0.0705 7.077601,-0.0705 z m 16.13931,-0.60925 -0.0694,-9.69131 -6.61459,-2.6123 c -3.63803,-1.43676 -6.82295,-2.67963 -7.07761,-2.76193 -0.43653,-0.14108 -0.46302,0.56276 -0.46302,12.30361 v 12.45324 h 7.14702 7.14701 z m -22.823579,-8.00508 6.614579,-2.61322 v -9.62279 -9.6228 l -7.077599,-0.0705 -7.077604,-0.0705 v 12.45757 c 0,11.74552 0.02647,12.44893 0.463021,12.30648 0.254661,-0.0831 3.439583,-1.32703 7.077603,-2.7643 z m 22.886469,-12.99959 v -9.00016 l -7.07761,0.0705 -7.07761,0.0705 v 6.21141 6.21142 l 6.74689,2.69288 c 3.71078,1.48109 6.8957,2.70431 7.0776,2.71827 0.2586,0.0198 0.33073,-1.93749 0.33073,-8.97476 z"
       id="path1" />
    <path
       d="m 102.32792,160.50281 c 0.0581,-7.45791 0.009,-8.93539 -0.29184,-8.86354 -0.19885,0.0474 -3.412463,1.27685 -7.141373,2.73206 l -6.77984,2.64584 -0.006,6.28817 -0.006,6.28818 7.07761,-0.0705 7.077603,-0.0705 z m 16.13931,-0.60925 -0.0694,-9.69131 -6.61459,-2.6123 c -3.63803,-1.43677 -6.82295,-2.67963 -7.07761,-2.76193 -0.43653,-0.14108 -0.46302,0.56276 -0.46302,12.30361 v 12.45324 h 7.14702 7.14701 z m -22.823583,-8.00508 6.614583,-2.61322 v -9.62279 -9.6228 l -7.077603,-0.0705 -7.07761,-0.0705 v 12.45757 c 0,11.74552 0.0265,12.44893 0.46303,12.30648 0.25466,-0.0831 3.43958,-1.32703 7.0776,-2.7643 z m 22.886473,-12.99959 v -9.00016 l -7.07761,0.0705 -7.07761,0.0705 v 6.21141 6.21142 l 6.74689,2.69288 c 3.71078,1.48108 6.8957,2.70431 7.0776,2.71827 0.2586,0.0198 0.33073,-1.93749 0.33073,-8.97476 z"
       style="fill:#ffffff;fill-opacity:1"
       id="path1-6" />
  </g>
</svg>
